
        <svg data-logo="logo" xmlns="http://www.w3.org/2000/svg" viewBox="0 0 237 43">
          <g id="logogram" transform="translate(0, 1) rotate(0)"><path d="M37.5948 40.783C44.0276 40.6519 49.2001 35.3903 49.2001 28.9218C49.2001 25.776 47.9513 22.7591 45.7284 20.5347L25.9896 0.782959V13.06C25.9896 15.1133 26.8048 17.0825 28.2557 18.5344L32.8796 23.1613L32.8923 23.1737L40.6454 30.9319C40.8972 31.1839 40.8972 31.5924 40.6454 31.8443C40.3936 32.0963 39.9854 32.0963 39.7336 31.8443L37.0611 29.1701H12.3392L9.66668 31.8443C9.4149 32.0963 9.00668 32.0963 8.75489 31.8443C8.5031 31.5924 8.5031 31.1839 8.75489 30.9319L16.508 23.1737L16.5206 23.1613L21.1446 18.5344C22.5955 17.0825 23.4106 15.1133 23.4106 13.06V0.782959L3.67189 20.5347C1.44896 22.7591 0.200134 25.776 0.200134 28.9218C0.200134 35.3903 5.37266 40.6519 11.8055 40.783H37.5948Z" fill="#FF0A0A"/></g>
          <g id="logotype" transform="translate(56, 0)"><path fill="#f15b71" d="M7.61 10.50L28.26 10.50L28.61 19.28L27.95 19.28Q26.41 14.63 25.22 12.93Q24.03 11.23 21.79 11.23L21.79 11.23L21.37 11.23L21.37 34.27L24.34 34.27L24.34 35L11.57 35L11.57 34.27L14.54 34.27L14.54 11.23L14.09 11.23Q11.85 11.23 10.62 13.00Q9.39 14.77 7.93 19.28L7.93 19.28L7.26 19.28L7.61 10.50ZM41.25 19.32L41.25 19.32Q39.95 19.32 38.97 21Q37.99 22.68 37.99 24.99L37.99 24.99L37.99 34.37L40.48 34.37L40.48 35L29.56 35L29.56 34.37L31.48 34.37L31.48 18.97L29.56 18.97L29.56 18.34L37.99 18.34L37.99 21.70Q38.45 19.91 39.74 18.95Q41.04 17.99 42.68 17.99Q44.33 17.99 45.36 18.92Q46.39 19.84 46.39 21.54Q46.39 23.24 45.62 24.15Q44.85 25.06 43.26 25.06Q41.67 25.06 40.91 24.01Q40.16 22.96 40.72 21.10L40.72 21.10L41.98 21.10Q42.86 19.32 41.25 19.32ZM52.02 15.92Q50.17 15.92 49.38 14.98Q48.59 14.03 48.59 12.63Q48.59 11.23 49.45 10.32Q50.31 9.41 52.06 9.41Q53.81 9.41 54.72 10.24Q55.63 11.06 55.63 12.58Q55.63 14.10 54.76 15.01Q53.88 15.92 52.02 15.92ZM46.74 18.97L46.74 18.34L55.31 18.34L55.31 34.37L57.28 34.37L57.28 35L46.88 35L46.88 34.37L48.80 34.37L48.80 18.97L46.74 18.97ZM70.75 25.59Q70.75 21.98 70.40 20.74Q70.05 19.49 69.03 19.49Q68.02 19.49 67.22 20.81Q66.41 22.12 66.41 24.32L66.41 24.32L66.41 30.73Q66.41 32.23 67.00 33.28Q67.60 34.34 68.75 34.34Q69.91 34.34 70.33 32.80Q70.75 31.25 70.75 27.41L70.75 27.41L70.75 25.59ZM58.05 18.34L66.34 18.34L66.34 21.10Q67.70 17.99 71.17 17.99L71.17 17.99Q74.18 17.99 75.84 20.16Q77.50 22.33 77.50 26.74Q77.50 31.15 75.70 33.25Q73.90 35.35 70.30 35.35L70.30 35.35Q68.61 35.35 67.78 34.93Q66.94 34.51 66.41 33.63L66.41 33.63L66.41 42.70L70.92 42.70L70.92 43.33L57.98 43.33L57.98 42.70L59.90 42.70L59.90 18.97L58.05 18.97L58.05 18.34ZM79.81 10.50L100.47 10.50L100.81 19.28L100.15 19.28Q98.61 14.63 97.42 12.93Q96.23 11.23 93.99 11.23L93.99 11.23L93.57 11.23L93.57 34.27L96.55 34.27L96.55 35L83.77 35L83.77 34.27L86.75 34.27L86.75 11.23L86.29 11.23Q84.05 11.23 82.83 13.00Q81.60 14.77 80.13 19.28L80.13 19.28L79.47 19.28L79.81 10.50ZM122.59 34.37L122.59 35L114.61 35L114.22 32.45Q113.66 33.84 112.56 34.60Q111.46 35.35 109.29 35.35L109.29 35.35Q103.86 35.35 103.86 29.50L103.86 29.50L103.86 18.97L101.90 18.97L101.90 18.34L110.37 18.34L110.37 30.34Q110.37 32.45 110.67 33.11Q110.97 33.77 111.86 33.77Q112.75 33.77 113.45 32.69Q114.15 31.61 114.15 29.68L114.15 29.68L114.15 18.97L112.54 18.97L112.54 18.34L120.66 18.34L120.66 34.37L122.59 34.37ZM123.36 18.97L123.36 18.34L131.79 18.34L131.79 21.56Q132.35 19.95 133.50 18.97Q134.66 17.99 137.00 17.99L137.00 17.99Q142.43 17.99 142.43 23.84L142.43 23.84L142.43 34.37L144.39 34.37L144.39 35L134.49 35L134.49 34.37L135.92 34.37L135.92 22.99Q135.92 20.89 135.64 20.28Q135.36 19.67 134.63 19.67L134.63 19.67Q133.50 19.67 132.65 21.14Q131.79 22.61 131.79 24.71L131.79 24.71L131.79 34.37L133.30 34.37L133.30 35L123.36 35L123.36 34.37L125.28 34.37L125.28 18.97L123.36 18.97ZM154.05 35.35Q149.53 35.35 147.28 33.02Q145.02 30.70 145.02 26.55Q145.02 22.40 147.56 20.20Q150.09 17.99 154.02 17.99L154.02 17.99Q161.96 17.99 161.65 25.97L161.65 25.97L151.78 25.97L151.78 27.34Q151.78 30.77 152.65 32.52Q153.53 34.27 155.69 34.27L155.69 34.27Q159.75 34.27 161.02 29.93L161.02 29.93L161.65 30.03Q160.98 32.55 159.25 33.95Q157.52 35.35 154.05 35.35L154.05 35.35ZM151.81 23.55L151.81 25.27L155.42 25.27L155.42 23.55Q155.42 20.72 155.08 19.69Q154.75 18.65 153.75 18.65Q152.75 18.65 152.28 19.76Q151.81 20.86 151.81 23.55L151.81 23.55ZM174.59 19.32L174.59 19.32Q173.30 19.32 172.32 21Q171.34 22.68 171.34 24.99L171.34 24.99L171.34 34.37L173.83 34.37L173.83 35L162.91 35L162.91 34.37L164.83 34.37L164.83 18.97L162.91 18.97L162.91 18.34L171.34 18.34L171.34 21.70Q171.80 19.91 173.09 18.95Q174.39 17.99 176.03 17.99Q177.68 17.99 178.71 18.92Q179.74 19.84 179.74 21.54Q179.74 23.24 178.97 24.15Q178.20 25.06 176.61 25.06Q175.02 25.06 174.26 24.01Q173.51 22.96 174.07 21.10L174.07 21.10L175.33 21.10Q176.21 19.32 174.59 19.32Z"/></g>
          
        </svg>
      
